#!OML:ASF F:\VICON\USERDATA\INSTALL\rory3\rory3.ASF
:FULLY-SPECIFIED
:DEGREES
1789
root 1.89015 17.6617 -6.12594 13.0502 58.5415 -10.949
lowerback 29.5974 0.377477 -2.76937
upperback 8.78477 0.258356 0.90515
thorax -6.39226 0.301824 2.49774
lowerneck -21.5847 -5.74445 -11.7084
upperneck 8.62528 -4.60081 2.17025
head 6.40171 -2.43293 2.01094
rclavicle 2.14687e-014 -1.07344e-014
rhumerus -21.1303 12.8248 -89.1099
rradius 69.0036
rwrist 39.9979
rhand -18.5101 -8.30602
rfingers 7.12502
rthumb 7.77804 -38.143
lclavicle 2.14687e-014 -1.07344e-014
lhumerus -22.0304 -20.1198 93.2566
lradius 63.7328
lwrist -24.5176
lhand -15.8072 25.9082
lfingers 7.12502
lthumb 10.3861 55.6317
rfemur -56.8238 -8.35026 14.8184
rtibia 26.2987
rfoot -2.67428 -26.7186
rtoes 21.0052
lfemur -46.5442 1.84503 -13.919
ltibia 34.9139
lfoot -8.51507 -15.197
ltoes -7.49962
1790
root 1.89282 17.644 -6.08649 13.7436 58.6902 -10.7339
lowerback 29.6888 0.338381 -2.73005
upperback 8.88808 0.217722 0.793601
thorax -6.31607 0.284179 2.36434
lowerneck -21.6259 -5.70135 -11.8235
upperneck 9.467 -4.54267 2.40896
head 6.69063 -2.41473 2.10896
rclavicle -3.26007e-014 -3.57812e-014
rhumerus -20.9137 13.8691 -88.9873
rradius 68.9061
rwrist 39.7157
rhand -18.7961 -8.65143
rfingers 7.12502
rthumb 7.50201 -38.4984
lclavicle -3.26007e-014 -3.57812e-014
lhumerus -21.897 -19.8697 93.0755
lradius 64.2102
lwrist -25.1507
lhand -16.1059 25.2821
lfingers 7.12502
lthumb 10.098 55.0198
rfemur -57.523 -8.63274 15.8215
rtibia 26.676
rfoot -1.52316 -26.781
rtoes 20.4082
lfemur -47.1749 1.91566 -13.9864
ltibia 35.1151
lfoot -8.50845 -15.4012
ltoes -7.14737
1791
root 1.89211 17.628 -6.04626 14.6178 58.917 -10.2651
lowerback 29.9214 0.356909 -2.78272
upperback 8.9563 0.221956 0.698581
thorax -6.34761 0.290249 2.28776
lowerneck -21.5997 -5.73883 -11.8943
upperneck 10.273 -4.60778 2.59619
head 6.96484 -2.45675 2.16995
rclavicle 7.4743e-014 -5.1684e-015
rhumerus -20.8078 14.4456 -88.8524
rradius 69.0518
rwrist 38.8782
rhand -19.315 -9.08487
rfingers 7.12502
rthumb 7.00112 -38.9491
lclavicle 7.4743e-014 -5.1684e-015
lhumerus -21.6101 -19.7912 93.0185
lradius 64.5175
lwrist -25.7053
lhand -16.0965 25.3304
lfingers 7.12502
lthumb 10.1071 55.0677
rfemur -58.1443 -8.96796 16.6106
rtibia 26.961
rfoot -0.220591 -27.086
rtoes 19.9373
lfemur -47.7766 1.88134 -14.1603
ltibia 35.3187
lfoot -8.39773 -15.6333
ltoes -6.65831
1792
root 1.88556 17.6111 -6.00547 15.7818 59.3033 -9.49147
lowerback 30.3086 0.316555 -2.86635
upperback 8.95853 0.135785 0.577253
thorax -6.51987 0.256886 2.23108
lowerneck -21.5516 -5.76667 -11.7582
upperneck 11.0441 -4.69724 2.61806
head 7.21789 -2.5146 2.14187
rclavicle -3.18055e-015 -1.78906e-014
rhumerus -20.757 14.7704 -88.8406
rradius 69.2928
rwrist 37.6386
rhand -20.1578 -9.31003
rfingers 7.12502
rthumb 6.18752 -39.1997
lclavicle -3.18055e-015 -1.78906e-014
lhumerus -21.3085 -19.8776 92.9561
lradius 64.7764
lwrist -26.1934
lhand -16.113 25.9987
lfingers 7.12502
lthumb 10.0912 55.7367
rfemur -58.6983 -9.26424 17.028
rtibia 27.1642
rfoot 0.56623 -27.669
rtoes 20.2152
lfemur -48.4527 1.79434 -14.5428
ltibia 35.512
lfoot -8.27284 -16.0051
ltoes -6.11563
1793
root 1.88139 17.5903 -5.96377 16.8412 59.6089 -8.90559
lowerback 30.5051 0.242476 -2.916
upperback 9.03577 0.0285116 0.500446
thorax -6.5169 0.20997 2.21139
lowerneck -21.6332 -5.8045 -11.7387
upperneck 11.762 -4.74007 2.60649
head 7.47395 -2.5541 2.1248
rclavicle -1.19271e-014 5.84427e-014
rhumerus -20.5917 15.1165 -88.8221
rradius 69.6102
rwrist 36.3917
rhand -20.6404 -9.3618
rfingers 7.12502
rthumb 5.72151 -39.2646
lclavicle -1.19271e-014 5.84427e-014
lhumerus -20.9172 -19.8291 92.8312
lradius 65.0146
lwrist -26.4558
lhand -16.359 26.2042
lfingers 7.12502
lthumb 9.8538 55.9536
rfemur -59.2325 -9.36881 17.4624
rtibia 27.2931
rfoot 0.778331 -28.279
rtoes 21.385
lfemur -49.1767 1.70065 -14.7917
ltibia 35.6832
lfoot -8.2657 -16.2303
ltoes -5.77231
1794
root 1.8817 17.5709 -5.92089 17.8672 59.7556 -8.35962
lowerback 30.5263 0.211101 -2.98428
upperback 9.16644 -0.0290727 0.377777
thorax -6.37456 0.184003 2.13323
lowerneck -21.7068 -5.76494 -11.6988
upperneck 12.3876 -4.68783 2.60419
head 7.69191 -2.54363 2.12143
rclavicle -7.95139e-015 0
rhumerus -20.4427 15.2836 -88.8957
rradius 69.9265
rwrist 35.3855
rhand -20.7802 -9.20925
rfingers 7.12502
rthumb 5.58654 -39.1156
lclavicle -7.95139e-015 0
lhumerus -20.4734 -19.783 92.6125
lradius 65.1575
lwrist -26.6391
lhand -16.7901 26.2642
lfingers 7.12502
lthumb 9.43787 56.0329
rfemur -59.753 -9.44763 18.0394
rtibia 27.364
rfoot 0.789218 -28.7702
rtoes 22.4728
lfemur -49.8624 1.70255 -15.0294
ltibia 35.845
lfoot -8.29402 -16.371
ltoes -5.56229
1795
root 1.88593 17.5534 -5.87473 19.0017 59.8503 -7.74043
lowerback 30.5045 0.24616 -3.05722
upperback 9.24026 -0.00837953 0.262801
thorax -6.28135 0.194802 2.03937
lowerneck -21.6884 -5.73028 -11.6672
upperneck 12.9483 -4.64853 2.58581
head 7.87481 -2.53984 2.1143
rclavicle -2.06736e-014 -1.31198e-014
rhumerus -20.4393 15.2572 -88.8975
rradius 70.2932
rwrist 34.4646
rhand -20.6432 -8.86035
rfingers 7.12502
rthumb 5.71888 -38.7632
lclavicle -2.06736e-014 -1.31198e-014
lhumerus -20.1247 -19.9227 92.5013
lradius 65.2236
lwrist -26.8543
lhand -17.2442 26.4393
lfingers 7.12502
lthumb 8.99974 56.2273
rfemur -60.2842 -9.64991 18.7488
rtibia 27.3502
rfoot 0.588651 -29.1724
rtoes 23.3928
lfemur -50.5602 1.84708 -15.3703
ltibia 36.0143
lfoot -8.31898 -16.5994
ltoes -5.32905
1796
root 1.88878 17.5334 -5.82521 20.3148 59.8154 -6.98431
lowerback 30.4648 0.368328 -3.31164
upperback 9.26941 0.0697702 0.199838
thorax -6.23151 0.231344 2.08895
lowerneck -21.6047 -5.78073 -11.9159
upperneck 13.4459 -4.66597 2.6739
head 8.04063 -2.56495 2.18027
rclavicle -7.63333e-014 -6.79844e-014
rhumerus -20.5018 15.4745 -88.8411
rradius 70.5856
rwrist 33.3948
rhand -21.0923 -9.21449
rfingers 7.12502
rthumb 5.28525 -39.1286
lclavicle -7.63333e-014 -6.79844e-014
lhumerus -19.9174 -20.0149 92.537
lradius 65.4452
lwrist -27.0313
lhand -17.4614 26.7236
lfingers 7.12502
lthumb 8.79014 56.5206
rfemur -60.849 -9.73875 19.3401
rtibia 27.3212
rfoot 0.174386 -29.5041
rtoes 24.4559
lfemur -51.2769 2.05282 -15.784
ltibia 36.176
lfoot -8.35518 -16.8398
ltoes -5.20518
1797
root 1.89168 17.5159 -5.77497 21.4741 59.7911 -6.34529
lowerback 30.4887 0.40347 -3.48857
upperback 9.29495 0.054957 0.0782076
thorax -6.21075 0.225553 2.06036
lowerneck -21.5494 -5.76022 -12.0429
upperneck 13.9238 -4.61675 2.7362
head 8.19604 -2.55457 2.22812
rclavicle -2.54444e-014 -5.08889e-014
rhumerus -20.6282 15.9063 -89.0541
rradius 70.8112
rwrist 32.3899
rhand -22.2079 -9.87102
rfingers 7.12502
rthumb 4.20798 -39.8092
lclavicle -2.54444e-014 -5.08889e-014
lhumerus -19.8134 -19.9635 92.4326
lradius 65.7806
lwrist -27.1919
lhand -17.7112 26.7364
lfingers 7.12502
lthumb 8.54902 56.5433
rfemur -61.3235 -9.77722 19.9619
rtibia 27.324
rfoot -0.0152047 -29.6596
rtoes 24.5705
lfemur -51.9558 2.31485 -16.1713
ltibia 36.3604
lfoot -8.44749 -17.1603
ltoes -5.2775
1798
root 1.8961 17.493 -5.72991 22.7672 59.9881 -5.5868
lowerback 30.5214 0.279212 -3.4295
upperback 9.33943 -0.0899475 -0.0723947
thorax -6.16822 0.160256 1.90777
lowerneck -21.5812 -5.71733 -12.0639
upperneck 14.316 -4.53713 2.69704
head 8.32953 -2.53168 2.22825
rclavicle -1.35174e-014 -3.89618e-014
rhumerus -20.6373 15.9632 -89.3342
rradius 70.952
rwrist 32.0514
rhand -22.96 -9.97925
rfingers 7.12502
rthumb 3.48171 -39.9306
lclavicle -1.35174e-014 -3.89618e-014
lhumerus -19.599 -19.9898 92.2767
lradius 66.0313
lwrist -27.4261
lhand -17.8642 26.9386
lfingers 7.12502
lthumb 8.40141 56.7515
rfemur -61.7708 -10.0734 20.6284
rtibia 27.2935
rfoot -0.362141 -29.6046
rtoes 24.9741
lfemur -52.7237 2.35195 -16.549
ltibia 36.5596
lfoot -8.44899 -17.5165
ltoes -5.05834
1799
root 1.89699 17.4642 -5.68431 23.9732 60.4705 -4.92909
lowerback 30.587 0.0787103 -3.16611
upperback 9.43543 -0.254693 -0.102245
thorax -6.0848 0.0860359 1.77876
lowerneck -21.6699 -5.71228 -12.0932
upperneck 14.5667 -4.48223 2.58446
head 8.42499 -2.52433 2.20019
rclavicle -6.12257e-014 4.6118e-014
rhumerus -20.4956 15.8526 -89.4222
rradius 71.0767
rwrist 32.2197
rhand -22.2669 -9.20713
rfingers 7.12502
rthumb 4.15099 -39.1464
lclavicle -6.12257e-014 4.6118e-014
lhumerus -19.29 -20.0662 92.1965
lradius 66.3167
lwrist -27.7453
lhand -18.0646 27.3984
lfingers 7.12502
lthumb 8.208 57.2189
rfemur -62.1379 -10.5631 21.4297
rtibia 27.2049
rfoot -0.681719 -29.1487
rtoes 26.2725
lfemur -53.5542 2.09798 -16.7031
ltibia 36.7587
lfoot -8.38357 -17.8241
ltoes -4.62287
1800
root 1.89394 17.4531 -5.62196 24.4262 60.5464 -4.69812
lowerback 31.0449 0.221547 -3.22281
upperback 9.57866 -0.0862689 -0.0794997
thorax -6.14037 0.171071 1.77956
lowerneck -21.5313 -5.7162 -12.0168
upperneck 14.6481 -4.50395 2.46507
head 8.42704 -2.54514 2.14639
rclavicle -2.06736e-014 -6.48038e-014
rhumerus -20.4371 15.6773 -89.4573
rradius 71.2021
rwrist 32.3942
rhand -21.1503 -8.3733
rfingers 7.12502
rthumb 5.2292 -38.2888
lclavicle -2.06736e-014 -6.48038e-014
lhumerus -19.1094 -20.2843 92.144
lradius 66.6916
lwrist -28.1603
lhand -18.3548 27.5094
lfingers 7.12502
lthumb 7.9279 57.3407
rfemur -61.9537 -10.5223 22.1827
rtibia 27.0201
rfoot -0.569267 -27.9897
rtoes 28.6457
lfemur -53.8194 2.26888 -16.715
ltibia 36.9205
lfoot -8.50021 -18.0733
ltoes -4.58276
1801
root 1.89457 17.4436 -5.55834 25.1377 60.3401 -4.2514
lowerback 31.3893 0.456134 -3.54455
upperback 9.66283 0.108229 -0.109874
thorax -6.20842 0.265738 1.8635
lowerneck -21.3155 -5.68068 -11.9873
upperneck 14.6854 -4.48253 2.41057
head 8.40044 -2.54098 2.12977
rclavicle -3.97569e-015 1.19271e-014
rhumerus -20.4541 15.6904 -89.5691
rradius 71.2796
rwrist 32.4519
rhand -21.6891 -8.99088
rfingers 7.12502
rthumb 4.70899 -38.9185
lclavicle -3.97569e-015 1.19271e-014
lhumerus -19.0522 -20.4165 92.1152
lradius 67.0759
lwrist -28.4728
lhand -18.5282 27.7135
lfingers 7.12502
lthumb 7.76053 57.5511
rfemur -61.7906 -10.2127 22.5893
rtibia 26.7194
rfoot 0.495243 -26.08
rtoes 30.131
lfemur -54.0742 2.68494 -16.9984
ltibia 37.0147
lfoot -8.62058 -18.3895
ltoes -4.72842
1802
root 1.8927 17.4384 -5.49156 25.7255 60.2301 -3.89526
lowerback 31.8014 0.640064 -3.83384
upperback 9.75546 0.253058 -0.0666236
thorax -6.29524 0.336962 2.0275
lowerneck -21.2686 -5.68754 -12.148
upperneck 14.8133 -4.43807 2.37527
head 8.4374 -2.53568 2.14946
rclavicle 3.57812e-015 -5.32743e-014
rhumerus -20.4117 15.9168 -89.6641
rradius 71.3066
rwrist 32.4476
rhand -23.2205 -10.3171
rfingers 7.12502
rthumb 3.23013 -40.2724
lclavicle 3.57812e-015 -5.32743e-014
lhumerus -18.9485 -20.362 92.1649
lradius 67.4026
lwrist -28.8028
lhand -18.7434 27.8365
lfingers 7.12502
lthumb 7.55285 57.6816
rfemur -61.3808 -9.49824 22.4176
rtibia 26.2458
rfoot 0.725207 -24.1837
rtoes 30.9452
lfemur -54.2657 3.04132 -17.1996
ltibia 37.0477
lfoot -8.77125 -18.7052
ltoes -4.93859
